<svg width="164pt" height="164pt" viewBox="0 0 164 164" fill="none" xmlns="http://www.w3.org/2000/svg">
    <g clip-path="url(#clip0_91_33)">
        <path d="M98.9197 17.8398C100.141 16.3968 101.651 15.2222 103.355 14.391C105.058 13.5597 106.918 13.09 108.814 13.0117C110.711 12.9334 112.603 13.2484 114.37 13.9365C116.137 14.6245 117.74 15.6706 119.078 17.0081C120.415 18.3455 121.457 19.945 122.138 21.7045C122.818 23.4641 123.122 25.3451 123.03 27.2277C122.938 29.1102 122.452 30.9531 121.603 32.6388C120.754 34.3245 119.56 35.8161 118.098 37.0184L53.3705 101.746L27 108.938L34.192 82.5676L98.9197 17.8398Z" stroke="currentColor" stroke-width="9.58929" stroke-linecap="round" stroke-linejoin="round"/>
        <path d="M89.3304 27.4282L108.509 46.6068" stroke="currentColor" stroke-width="9.58929" stroke-linecap="round" stroke-linejoin="round"/>
        <path d="M13 95H41V122H13V95Z" stroke="currentColor" stroke-width="8" stroke-miterlimit="10" stroke-linejoin="bevel"/>
        <path d="M71 122H99V149H71V122Z" fill="currentColor" stroke="currentColor" stroke-width="2.37037" stroke-miterlimit="10" stroke-linejoin="bevel"/>
        <path d="M123 90H151V117H123V90Z" fill="currentColor" stroke="currentColor" stroke-width="2.37037" stroke-miterlimit="10" stroke-linejoin="bevel"/>
        <path d="M26 107.5L85.5 135.5L137.5 102" stroke="currentColor" stroke-width="9.48149" stroke-miterlimit="10" stroke-linecap="round"/>
    </g>
    <defs>
        <clipPath id="clip0_91_33">
            <rect width="164" height="164" fill="white"/>
        </clipPath>
    </defs>
</svg>
