<svg width="1600pt" height="1600pt" viewBox="0 0 1600 1600" fill="none" xmlns="http://www.w3.org/2000/svg">
    <!-- Adapted in Figma based on Dave Branson's https://thenounproject.com/icon/polygon-189082/ -->
    <path d="M298.777 416.721L1203.65 178.155" stroke="currentColor" stroke-width="88.8885" stroke-miterlimit="10" stroke-linecap="round"/>
    <path d="M1203.66 190.644L1360 790L1116 1406" stroke="currentColor" stroke-width="88.8885" stroke-miterlimit="10" stroke-linecap="round"/>
    <path d="M1104 1418L286.332 1177.6" stroke="currentColor" stroke-width="88.8885" stroke-miterlimit="10" stroke-linecap="round"/>
    <path d="M270.121 1171.11L302.412 427.543" stroke="currentColor" stroke-width="88.8885" stroke-miterlimit="10" stroke-linecap="round"/>
    <path d="M1203 654H1512.33V950.377H1203V654Z" fill="currentColor" stroke="currentColor" stroke-width="22.2221" stroke-miterlimit="10" stroke-linejoin="bevel"/>
    <path d="M957 1266H1266.33V1562.38H957V1266Z" fill="currentColor" stroke="currentColor" stroke-width="22.2221" stroke-miterlimit="10" stroke-linejoin="bevel"/>
    <path d="M1048.98 42.4531H1358.32V338.83H1048.98V42.4531Z" fill="currentColor" stroke="currentColor" stroke-width="22.2221" stroke-miterlimit="10" stroke-linejoin="bevel"/>
    <path d="M1113.11 96.3906H1305.39V274.745H1113.11V96.3906Z" fill="currentColor" stroke="currentColor" stroke-width="22.2221" stroke-miterlimit="10" stroke-linejoin="bevel"/>
    <path d="M147.744 1022.9H457.076V1319.27H147.744V1022.9Z" fill="currentColor" stroke="currentColor" stroke-width="22.2221" stroke-miterlimit="10" stroke-linejoin="bevel"/>
    <path d="M211.833 1076.83H404.121V1255.18H211.833V1076.83Z" fill="currentColor" stroke="currentColor" stroke-width="22.2221" stroke-miterlimit="10" stroke-linejoin="bevel"/>
    <path d="M144.111 279.321H453.443V575.698H144.111V279.321Z" fill="currentColor" stroke="currentColor" stroke-width="22.2221" stroke-miterlimit="10" stroke-linejoin="bevel"/>
    <path d="M208.199 333.265H400.487V511.62H208.199V333.265Z" fill="currentColor" stroke="currentColor" stroke-width="22.2221" stroke-miterlimit="10" stroke-linejoin="bevel"/>
</svg>
